<svg width="414" height="415" viewBox="0 0 414 415" fill="none" xmlns="http://www.w3.org/2000/svg">
<g id="Mask Group">
<g id="day 1" clip-path="url(#clip0)">
<g id="day">
<path id="Vector" d="M414 0H0V415H414V0Z" fill="#E6ECF6"/>
<path id="cloud" d="M193.117 86.347C190.344 86.3467 187.577 86.6234 184.859 87.173C183.847 82.1244 181.704 77.371 178.59 73.2703C175.476 69.1695 171.473 65.8281 166.882 63.4974C162.29 61.1668 157.23 59.9074 152.082 59.8142C146.934 59.7209 141.832 60.7961 137.159 62.959C132.985 51.7066 124.53 42.5614 113.64 37.5183C102.749 32.4753 90.3058 31.9436 79.0246 36.0393C67.7434 40.135 58.5396 48.5257 53.4209 59.3811C48.3021 70.2364 47.6839 82.6756 51.701 93.985C41.805 94.358 32.448 98.5897 25.6325 105.774C18.8169 112.959 15.0841 122.526 15.233 132.428C15.3818 142.33 19.4004 151.78 26.4289 158.757C33.4573 165.733 42.9372 169.682 52.84 169.757H193.12C204.181 169.757 214.789 165.363 222.61 157.542C230.431 149.721 234.825 139.113 234.825 128.052C234.825 116.991 230.431 106.383 222.61 98.5621C214.789 90.7409 204.181 86.347 193.12 86.347H193.117Z" fill="white"/>
<path id="cloud_2" opacity="0.52" d="M260.076 79.668C257.646 79.6675 255.222 79.9097 252.84 80.391C251.954 75.9667 250.075 71.8011 247.347 68.2074C244.618 64.6137 241.11 61.6856 237.087 59.6432C233.063 57.6008 228.629 56.4974 224.117 56.416C219.606 56.3345 215.135 57.2772 211.04 59.173C207.38 49.3165 199.971 41.307 190.429 36.8908C180.887 32.4746 169.986 32.01 160.104 35.5982C150.221 39.1864 142.157 46.5365 137.671 56.0457C133.185 65.555 132.641 76.4521 136.157 86.361C127.42 86.594 119.127 90.2622 113.077 96.5699C107.027 102.878 103.708 111.316 103.84 120.055C103.972 128.794 107.543 137.129 113.78 143.252C120.018 149.374 128.417 152.791 137.157 152.761H260.076C269.768 152.761 279.063 148.911 285.917 142.058C292.77 135.204 296.62 125.909 296.62 116.217C296.62 106.525 292.77 97.2298 285.917 90.3765C279.063 83.5232 269.768 79.673 260.076 79.673V79.668Z" fill="white"/>
<path id="cloud_3" d="M344.514 193.583C346.26 193.583 348.002 193.757 349.714 194.103C350.351 190.925 351.7 187.933 353.661 185.351C355.621 182.77 358.141 180.667 361.031 179.199C363.921 177.732 367.106 176.939 370.347 176.88C373.587 176.821 376.799 177.498 379.741 178.859C382.345 171.743 387.664 165.95 394.533 162.751C401.402 159.551 409.26 159.207 416.382 161.792C423.505 164.378 429.311 169.684 432.528 176.544C435.745 183.405 436.109 191.262 433.541 198.391C439.796 198.589 445.723 201.237 450.043 205.765C454.364 210.292 456.733 216.336 456.639 222.594C456.545 228.851 453.995 234.821 449.541 239.217C445.086 243.612 439.082 246.081 432.824 246.091H344.514C341.053 246.112 337.621 245.449 334.417 244.139C331.213 242.829 328.299 240.899 325.844 238.459C323.389 236.019 321.441 233.117 320.111 229.921C318.781 226.725 318.097 223.298 318.097 219.837C318.097 216.375 318.781 212.948 320.111 209.752C321.441 206.556 323.389 203.654 325.844 201.214C328.299 198.774 331.213 196.844 334.417 195.534C337.621 194.224 341.053 193.561 344.514 193.582V193.583Z" fill="white"/>
<path id="cloud_4" d="M-19.239 255.185C-16.994 255.185 -14.7545 255.408 -12.554 255.853C-11.7345 251.766 -9.99911 247.919 -7.47838 244.6C-4.95765 241.28 -1.71718 238.576 1.99938 236.689C5.71593 234.803 9.81184 233.783 13.9791 233.708C18.1464 233.632 22.2765 234.502 26.059 236.253C27.7081 231.71 30.2357 227.537 33.4977 223.971C36.7596 220.406 40.6919 217.517 45.0701 215.471C49.4483 213.425 54.1866 212.261 59.0145 212.047C63.8424 211.832 68.6654 212.57 73.208 214.219C77.7506 215.868 81.924 218.396 85.4897 221.658C89.0555 224.92 91.9438 228.852 93.9899 233.23C96.0359 237.608 97.1996 242.347 97.4144 247.175C97.6293 252.002 96.8911 256.825 95.242 261.368C103.288 261.62 110.913 265.024 116.472 270.846C122.03 276.668 125.078 284.442 124.957 292.491C124.836 300.54 121.556 308.219 115.825 313.872C110.093 319.524 102.37 322.697 94.32 322.707H-19.239C-28.193 322.707 -36.7802 319.15 -43.1116 312.819C-49.443 306.487 -53 297.9 -53 288.946C-53 279.992 -49.443 271.405 -43.1116 265.073C-36.7802 258.742 -28.193 255.185 -19.239 255.185V255.185Z" fill="white"/>
</g>
<path id="Vector_2" d="M309.676 15.284C286.918 45.8053 295.642 87.5135 329.124 108.26C362.607 129.007 408.362 121.055 431.121 90.5339C453.881 60.0117 445.157 18.3025 411.674 -2.4444C399.063 -10.2584 384.717 -14.0011 370.509 -14C346.993 -13.9978 323.863 -3.74137 309.676 15.284Z" fill="url(#paint0_linear)"/>
<g id="Frame" clip-path="url(#clip1)">
<path id="Vector_3" d="M382.889 386.769C368.574 401.694 355.917 399.691 346.468 390.792C346.248 390.585 346.033 390.377 345.821 390.166C345.393 389.744 344.982 389.312 344.587 388.873C336.73 380.143 335.359 368.424 348.671 354.545C362.449 340.181 395.684 336.98 398.159 336.76L398.162 336.76C398.256 336.751 398.304 336.748 398.304 336.748C398.304 336.748 397.203 371.846 382.889 386.769Z" fill="#88AB3C"/>
<path id="Vector_4" d="M348.035 387.923L364.005 383.689L346.953 389.02L345.821 390.166C345.393 389.744 344.982 389.312 344.587 388.873L359.582 374.577L359.688 374.456L359.72 374.446L361.137 373.095L365.654 355.906L362.17 372.056L361.899 372.37L373.228 361.569L379.01 344.856L375.195 359.648L398.159 336.76L398.235 336.683L398.162 336.76L380.383 355.122L392.755 352.856L378.837 356.688L369.007 366.656L383.309 361.676L367.562 368.122L362.096 373.664L382.302 367.013L360.188 375.597L348.035 387.923Z" fill="#3F3D56"/>
</g>
<g id="Frame_2" clip-path="url(#clip2)">
<path id="Vector_5" d="M315.507 349.023C328.509 361.686 324.19 375.039 313.265 386.056C313.011 386.312 312.757 386.564 312.5 386.813C311.984 387.314 311.463 387.8 310.936 388.27C300.467 397.62 288.033 400.698 275.942 388.922C263.428 376.734 265.963 342.873 266.17 340.35L266.171 340.347C266.179 340.25 266.183 340.202 266.183 340.202C266.183 340.202 302.506 336.361 315.507 349.023Z" fill="#88AB3C"/>
<path id="Vector_6" d="M310.556 384.845L308.97 368.957L311.506 385.807L312.5 386.813C311.984 387.314 311.463 387.8 310.936 388.27L298.709 374.815L298.602 374.724L298.597 374.692L297.441 373.42L280.355 371.194L296.542 372.501L296.821 372.737L287.582 362.572L271.215 358.972L285.932 360.813L266.17 340.35L266.104 340.282L266.171 340.347L282.137 356.098L281.963 343.647L283.494 357.473L292.13 366.209L289.473 352.148L293.401 367.492L298.203 372.349L294.848 352.43L299.877 374.045L310.556 384.845Z" fill="#3F3D56"/>
</g>
<g id="Frame_3" clip-path="url(#clip3)">
<path id="Vector_7" d="M361.476 361.685C362.315 382.466 348.828 390.19 331.83 390.767C331.436 390.781 331.043 390.791 330.651 390.796C329.863 390.808 329.082 390.802 328.309 390.779C312.929 390.327 300.701 383.104 299.921 363.778C299.113 343.777 326.606 317.568 328.669 315.629L328.672 315.627C328.751 315.553 328.791 315.516 328.791 315.516C328.791 315.516 360.636 340.906 361.476 361.685Z" fill="#88AB3C"/>
<path id="Vector_8" d="M330.582 387.627L341.269 373.144L330.616 389.176L330.651 390.796C329.863 390.808 329.082 390.802 328.309 390.779L328.682 369.948L328.666 369.787L328.686 369.756L328.721 367.788L316.774 352.485L328.696 366.315L328.741 366.731L329.023 350.992L318.683 335.111L329.03 348.228L328.669 315.629L328.668 315.52L328.672 315.627L329.552 341.314L338.779 330.806L329.599 343.527L329.912 357.601L338.371 343.797L329.96 359.67L330.134 367.495L342.443 348.263L330.193 370.225L330.582 387.627Z" fill="#3F3D56"/>
</g>
</g>
</g>
<defs>
<linearGradient id="paint0_linear" x1="411.677" y1="-2.44226" x2="369.551" y2="85.1323" gradientUnits="userSpaceOnUse">
<stop stop-color="white"/>
<stop offset="1" stop-color="#FFD600"/>
</linearGradient>
<clipPath id="clip0">
<rect width="414" height="415" fill="white"/>
</clipPath>
<clipPath id="clip1">
<rect width="47.6153" height="75.7058" fill="white" transform="translate(382.483 320.427) rotate(45.2365)"/>
</clipPath>
<clipPath id="clip2">
<rect width="56.9378" height="66.4242" fill="white" transform="translate(246.411 358.851) rotate(-43.8063)"/>
</clipPath>
<clipPath id="clip3">
<rect width="62.4076" height="76.1218" fill="white" transform="translate(299 315.487) rotate(-0.447313)"/>
</clipPath>
</defs>
</svg>
